<?xml version="1.0" encoding="UTF-8" ?>
<!DOCTYPE svg PUBLIC "-//W3C//DTD SVG 1.1//EN" "http://www.w3.org/Graphics/SVG/1.1/DTD/svg11.dtd">
<svg width="231pt" height="194pt" viewBox="0 0 231 194" version="1.1" xmlns="http://www.w3.org/2000/svg">
<g id="#45a5bbff">
</g>
<g id="#00205bff">
<path fill="#00205b" opacity="1.00" d=" M 53.88 0.00 L 55.50 0.00 C 60.11 0.57 64.75 2.74 67.25 6.80 C 69.38 9.85 69.70 13.64 69.81 17.23 C 74.45 20.74 79.30 23.97 84.04 27.34 C 87.53 24.83 91.65 22.64 96.10 23.14 C 99.59 23.41 102.61 25.33 105.41 27.25 C 110.78 24.09 116.10 20.82 121.33 17.42 C 121.32 13.29 121.83 8.87 124.71 5.66 C 127.22 2.18 131.40 0.56 135.53 0.00 L 137.34 0.00 C 144.11 0.84 150.02 6.17 150.92 13.04 C 152.38 21.70 144.71 30.34 135.96 30.08 C 131.86 30.15 128.31 27.85 125.10 25.56 C 119.94 28.79 114.70 31.90 109.57 35.19 C 109.56 38.48 109.68 41.97 108.01 44.94 C 106.52 48.17 103.51 50.22 100.62 52.08 C 100.53 58.51 100.67 64.93 100.70 71.36 C 103.54 73.39 106.52 75.56 108.08 78.81 C 109.38 81.31 109.49 84.18 109.82 86.92 C 115.08 90.52 120.42 94.00 125.72 97.54 C 128.76 95.46 132.11 93.42 135.95 93.59 C 139.75 93.31 143.12 95.27 146.25 97.14 C 151.29 94.17 156.33 91.19 161.32 88.13 C 160.97 83.31 162.07 78.14 165.82 74.81 C 171.14 69.21 180.86 69.23 186.29 74.65 C 190.01 77.94 191.06 83.09 191.16 87.84 C 195.90 91.17 200.74 94.36 205.58 97.53 C 210.15 93.88 216.62 92.23 222.09 94.85 C 227.24 97.05 230.37 102.27 231.00 107.70 L 231.00 109.42 C 230.39 115.71 226.02 120.78 220.32 123.18 C 220.42 129.24 220.35 135.30 220.48 141.36 C 226.08 143.74 230.47 148.78 231.00 155.00 L 231.00 157.24 C 230.09 163.38 225.79 169.03 219.58 170.45 C 214.72 171.91 209.72 169.96 205.86 167.03 C 200.87 169.94 195.89 172.88 191.01 175.96 C 191.21 180.58 190.35 185.54 187.04 189.00 C 184.54 191.93 180.80 193.33 177.11 194.00 L 174.00 194.00 C 170.26 192.89 166.49 191.12 164.19 187.83 C 161.99 185.03 161.48 181.42 161.04 178.00 C 155.96 174.56 150.86 171.15 145.76 167.75 C 141.79 169.96 137.16 171.89 132.58 170.43 C 125.07 168.67 119.95 160.59 121.65 153.04 C 122.49 147.55 126.88 143.49 131.80 141.40 C 131.68 135.35 132.06 129.28 131.57 123.25 C 129.33 121.23 126.12 120.23 124.40 117.56 C 121.46 114.16 121.35 109.49 121.36 105.25 C 116.26 102.05 111.36 98.56 106.32 95.26 C 101.96 99.87 94.83 101.98 88.91 99.20 C 81.75 96.30 77.95 87.22 81.02 80.10 C 82.67 75.24 87.17 72.14 91.86 70.59 C 91.85 64.73 91.80 58.87 91.82 53.02 C 88.55 51.59 85.04 50.09 82.94 47.04 C 80.35 43.68 79.83 39.34 79.86 35.23 C 75.23 31.94 70.56 28.69 65.89 25.46 C 62.99 27.65 59.80 29.82 56.05 30.04 C 51.81 30.55 47.86 28.51 44.58 26.04 C 39.58 28.95 34.69 32.05 29.77 35.09 C 30.07 39.89 29.22 45.16 25.50 48.56 C 20.71 53.71 12.24 54.58 6.58 50.36 C 2.74 47.90 0.68 43.54 0.00 39.15 L 0.00 36.80 C 0.87 30.33 5.77 24.48 12.34 23.36 C 17.21 22.15 21.85 24.65 25.77 27.26 C 30.54 24.26 35.38 21.39 40.08 18.28 C 39.65 13.36 40.75 8.02 44.42 4.48 C 46.89 1.83 50.43 0.67 53.88 0.00 M 150.78 104.85 C 152.43 112.48 147.88 120.48 140.51 122.99 C 140.48 129.12 140.57 135.25 140.57 141.37 C 147.98 144.15 152.83 152.41 150.54 160.20 C 155.08 163.38 159.69 166.46 164.34 169.49 C 168.27 165.27 174.39 162.61 180.10 164.53 C 182.70 164.95 184.48 167.16 186.89 167.93 C 191.84 165.27 196.58 162.20 201.37 159.27 C 199.96 151.71 204.41 143.91 211.70 141.42 C 211.73 135.32 211.57 129.22 211.68 123.13 C 204.71 120.47 199.91 113.10 201.42 105.58 C 196.74 102.19 191.88 99.08 187.08 95.89 C 183.92 98.46 180.14 100.63 175.92 100.44 C 171.94 100.58 168.38 98.51 165.42 96.05 C 160.51 98.93 155.63 101.86 150.78 104.85 Z" />
</g>
</svg>
